<?xml version="1.0" encoding="utf-8"?>
<!-- Generator: Adobe Illustrator 19.0.0, SVG Export Plug-In . SVG Version: 6.00 Build 0)  -->
<!DOCTYPE svg PUBLIC "-//W3C//DTD SVG 1.1//EN" "http://www.w3.org/Graphics/SVG/1.1/DTD/svg11.dtd">
<svg version="1.1" id="Calque_1" xmlns="http://www.w3.org/2000/svg" xmlns:xlink="http://www.w3.org/1999/xlink" x="0px" y="0px"
	 viewBox="150 45 300 90" style="enable-background:new 150 45 300 90;" xml:space="preserve">
<style type="text/css">
	.st0{fill:#D1D3D3;}
	.st1{fill:#C00733;}
	.st2{fill:#00946E;}
</style>
<g id="Logo_1_">
	<g id="Typo_1_">
		<g>
			<path class="st0" d="M193.9,78c-0.7,1.2-1.6,2.8-2.1,3.5c0,0,0,0-0.5,0.4c-0.5,0.4-1.2,0.6-2,0.6c-0.7,0-1.5-0.2-2.3-0.7
				c-0.8-0.4-1.7-0.9-2.8-1.5c-1-0.6-2.2-1.1-3.5-1.5c-1.3-0.4-2.8-0.7-4.5-0.7c-2.9,0-5.1,0.6-6.5,1.9s-2.2,2.9-2.2,5.1
				c0,1.4,0.4,2.5,1.3,3.4c0.9,0.9,2,1.7,3.4,2.3c1.4,0.6,3,1.2,4.8,1.8c1.8,0.5,3.6,1.1,5.5,1.8c1.9,0.7,3.7,1.4,5.5,2.3
				c1.8,0.9,3.4,2,4.8,3.4c1.4,1.4,2.5,3.1,3.4,5.1c0.9,2,1.3,4.4,1.3,7.2c0,3.1-0.5,6-1.6,8.7c-1.1,2.7-2.6,5.1-4.7,7.1
				c-2.1,2-4.6,3.6-7.6,4.8c-3,1.2-6.4,1.7-10.2,1.7c-2.1,0-4.2-0.2-6.4-0.6c-2.2-0.4-4.3-1-6.3-1.8c-2-0.8-3.9-1.7-5.7-2.8
				c-1.8-1.1-2.8-2-2.8-2c-1-0.9-1.3-2.6-0.5-3.8l1.9-3.1c0.7-1.2,1.7-2.6,2.2-3.1c0,0,0,0,0.6-0.3c0.6-0.3,1.3-0.5,2-0.5
				c0.9,0,1.9,0.3,2.8,0.9c0.9,0.6,2,1.2,3.2,1.9c1.2,0.7,2.6,1.4,4.1,1.9c1.5,0.6,3.4,0.9,5.5,0.9c2.8,0,5-0.6,6.6-1.9
				c1.6-1.2,2.4-3.2,2.4-5.9c0-1.6-0.4-2.9-1.3-3.8c-0.9-1-2-1.8-3.4-2.5c-1.4-0.6-3-1.2-4.8-1.7c-1.8-0.5-3.6-1-5.5-1.6
				c-1.9-0.6-3.7-1.3-5.5-2.2c-1.8-0.9-3.4-2-4.8-3.5c-1.4-1.4-2.5-3.2-3.4-5.4c-0.9-2.1-1.3-4.8-1.3-7.9c0-2.5,0.5-5,1.5-7.4
				c1-2.4,2.5-4.5,4.5-6.4c2-1.9,4.4-3.4,7.3-4.5c2.9-1.1,6.2-1.7,9.9-1.7c2.1,0,4.1,0.2,6,0.5c2,0.3,3.8,0.8,5.6,1.4
				c1.8,0.6,3.4,1.4,4.9,2.3c1.5,0.9,2.2,1.4,2.2,1.4c1.1,0.9,1.4,2.6,0.8,3.8L193.9,78z"/>
		</g>
		<g>
			<path class="st0" d="M232.7,111.4c-1.4,0-2.5,1.1-2.5,2.5v17.5c0,1.4-1.1,2.5-2.5,2.5h-10.6c-1.4,0-2.5-1.1-2.5-2.5V69
				c0-1.4,1.1-2.5,2.5-2.5h18.8c1.4,0,3.6,0.1,5,0.2c0,0,6.3,0.4,9.7,1.5c3.4,1.1,6.2,2.7,8.4,4.6c2.2,2,3.8,4.3,4.9,7
				c1,2.7,1.6,5.6,1.6,8.7c0,3.4-0.5,6.4-1.6,9.3c-1.1,2.8-2.7,5.2-5,7.2c-2.2,2-5,3.6-8.4,4.7c-3.4,1.1-9.6,1.5-9.6,1.5
				c-1.4,0.1-3.6,0.2-5,0.2H232.7z M230.2,97.1c0,1.4,1.1,2.5,2.5,2.5h3.1c1.4,0,3.6-0.2,5-0.3c0,0,4.5-0.6,6.3-2.6
				c1.8-1.9,2.7-4.7,2.7-8.1c0-1.5-0.2-2.9-0.7-4.2C248.7,83,248,82,247,81c-0.9-0.9-2.1-1.6-3.6-2.1c-1.4-0.5-2.6-0.6-2.6-0.6
				c-1.4-0.1-3.6-0.2-5-0.2h-3.1c-1.4,0-2.5,1.1-2.5,2.5V97.1z"/>
		</g>
		<g>
			<path class="st0" d="M367,116.5c0.4,0,0.7,0.1,1.1,0.2c0.4,0.1,0.4,0.1,0.4,0.1c0.4,0.3,1.5,1.4,2.4,2.4l2.7,2.9
				c1,1,0.9,2.6,0,3.6c0,0-4.4,4.4-8.4,6.2c-4.1,1.8-8.9,2.7-14.5,2.7c-5.1,0-9.7-0.9-13.8-2.6c-4.1-1.7-7.5-4.1-10.3-7.2
				c-2.8-3.1-5-6.7-6.5-10.9c-1.5-4.2-2.3-8.8-2.3-13.7c0-5,0.9-9.6,2.6-13.9c1.7-4.2,4.1-7.8,7.2-10.9c3.1-3.1,6.8-5.4,11.1-7.1
				c4.3-1.7,9.1-2.5,14.3-2.5c2.5,0,4.9,0.2,7.1,0.7c2.2,0.4,4.3,1.1,6.3,1.9c1.9,0.8,3.7,1.7,5.4,2.8c1.6,1.1,2.5,1.9,2.5,1.9
				c1,0.9,1.2,2.6,0.3,3.7l-2.3,3.1c-0.8,1.1-1.8,2.4-2.2,2.8c0,0,0,0-0.5,0.4c-0.5,0.4-1.1,0.5-1.9,0.5c-0.6,0-1.1-0.1-1.6-0.4
				c-0.5-0.2-1-0.5-1.6-0.9c-0.6-0.4-1.2-0.7-1.8-1.2c-0.7-0.4-1.4-0.8-2.4-1.2c-0.9-0.4-2-0.7-3.2-0.9c-1.2-0.2-2.6-0.4-4.3-0.4
				c-2.8,0-5.4,0.5-7.8,1.5c-2.3,1-4.4,2.4-6,4.3c-1.7,1.9-3,4.1-3.9,6.8c-0.9,2.7-1.4,5.6-1.4,8.9c0,3.5,0.5,6.5,1.4,9.2
				c0.9,2.7,2.2,4.9,3.8,6.8c1.6,1.8,3.5,3.2,5.7,4.2c2.2,1,4.5,1.4,6.9,1.4c1.4,0,2.7-0.1,3.9-0.2c1.2-0.1,2.3-0.4,3.3-0.7
				c1-0.3,2-0.8,2.9-1.3c0.9-0.5,0.9-0.5,0.9-0.5c1-0.8,2.2-1.7,2.6-2c0,0,0,0,0.4-0.2C366.1,116.6,366.5,116.5,367,116.5z"/>
		</g>
		<g>
			<path class="st0" d="M426.6,106.1c-0.7,1.2-1.3,3.3-1.3,4.7v20.6c0,1.4-1.1,2.5-2.5,2.5h-10.6c-1.4,0-2.5-1.1-2.5-2.5v-20.6
				c0-1.4-0.6-3.5-1.3-4.7l-21.9-37.4c-0.7-1.2-0.1-2.2,1.2-2.2h8.8c1.4,0,3.6,0.1,4.9,0.3c0,0,0,0,0.8,0.6c0.8,0.6,0.8,0.6,0.8,0.6
				c0.6,1,1.6,2.8,2.2,4.1l7.3,15.1c0.6,1.2,1.6,3.3,2.2,4.5c0,0,0.4,0.8,1,2.1c0.6,1.3,0.8,1.6,0.8,1.6c0.5,1.3,1.4,1.3,1.8,0
				c0,0,0.1-0.3,0.8-1.6c0.6-1.3,1-2,1-2c0.6-1.2,1.6-3.3,2.2-4.5l7.3-15.1c0.6-1.2,1.3-2.6,1.5-3.1c0,0,0,0,0.3-0.4
				c0.3-0.4,0.7-0.8,1.1-1.1c0.4-0.3,0.9-0.6,1.4-0.8c0.5-0.2,0.5-0.2,0.5-0.2c0.7-0.1,2.4-0.1,3.8-0.1h8.9c1.4,0,1.9,1,1.2,2.2
				L426.6,106.1z"/>
		</g>
	</g>
	<g id="Icon_1_">
		<path class="st1" d="M289,46c-1.1-1-2.6-0.5-3.2,1c-0.6,1.5-0.2,2.8,1,2.8c1.2,0,2.4,0.6,2.7,1.4s0.6,3.5,0.7,6s-0.3,6.2-0.9,8.2
			c-0.5,2-1.8,4.1-2.8,4.8c-1,0.7-2,3.5-2.1,6.2l-0.3,5.7c-0.1,2.8-0.1,7.3,0,10l0.6,11.6c0.1,2.8,0.9,7.2,1.7,9.8l0.5,1.8
			c0.8,2.6,2.7,6.7,4.3,8.9l0.8,1.2c1.6,2.3,4.6,5.1,6.7,6.2c2.1,1.2,3,0,2-2.5l-0.1-0.2c-1-2.6-1.8-6.9-1.6-9.7l0.5-10.1
			c0.1-2.8,0.6-7.2,1-10l1.3-8.8c0.4-2.7,0.8-7.2,0.8-10v-4c0-2.8-0.9-5.9-2-6.9s-2.8-4-3.8-6.6l-4.1-10.7
			C291.8,49.8,290.1,46.9,289,46z"/>
		<path class="st2" d="M288.9,66.5c-0.3,1.3,0.2,3,1,3.6c0.9,0.6,2.6,0.7,3.8,0.1l2.8-1.4c1.2-0.6,1.9-2.1,1.4-3.4l-5.9-15.3
			c-0.5-1.3-1.8-3.1-2.8-4l-0.3-0.2c-1.1-0.9-2.4-0.6-2.9,0.7l-0.4,0.9c-0.5,1.3,0,2.3,1.2,2.3c1.2,0,2.4,0.7,2.6,1.5
			c0.3,0.8,0.5,2.6,0.5,4v4.3c0,1.4-0.2,3.6-0.5,5L288.9,66.5z"/>
	</g>
</g>
</svg>
